<svg width="186" height="238" fill="none" xmlns="http://www.w3.org/2000/svg"><path d="M20.798 119.807c8.36 9.82 25.89 27.16 39.92 18.74 6.76-4.07 11.23-15.06 14-22.3a21.215 21.215 0 0 0 1.87-7 11.811 11.811 0 0 0-.24-2.58c-.09-.43-.81-1.49-.42-1.27 5.76 3.19 11.55-7.43 12.83-11.57 3.88-12.53 1.53-27.54-7.38-37.46-13.37-14.88-35.58-25-55.54-17.92-24.59 8.7-32.21 45.81-16.72 65.65 5.15 6.6 12.43 9.87 16.06-.52 2.23-6.39 1.49-13.58.38-20.11-.42-2.44-1.28-10.75-5.53-10.13-3.75.55-4.61 5.88-2.85 8.61 2 3.08 5.91 4.23 9.38 4.75 4.3.63 10.16.43 12.84-3.69.59-.91 2.31-4.65 1.09-5.42-2.13-1.34-4.23 2.17-3.62 4 1.77 5.43 11.59 4.53 14.82 1 2.19-2.42 2.69-6.11 2.77-9.23.18-7.21-1.65-16-5.31-22.32" stroke="#000" stroke-width="2" stroke-linejoin="round"/><path d="M55.178 81.037c7.21 0 13.83-1.08 19.55-5.75 1.5-1.23 4.92-5 2.84-7.08-1.62-1.64-3.56 2.29-4 3.32-1.76 4.16-1.15 9-.48 13.37.67 4.37 2.11 9.45 1.7 13.88m-44.249-2.77c3.38-3.54 11.88-7.76 16.22-3.42 3 3 3.55 7.1 5.16 10.86a13.244 13.244 0 0 0 5.85 6.75c.87.44 2.22 1.13 3.15.47.38-.27-.7.63-1.05.94-.73.65-1.45 1.32-2.19 2-2.08 1.8-6.56 3.84-9.46 2.76-4.24-1.56-.37-8.15 1.9-4.13a5.88 5.88 0 0 1 .55 1.54c.21 1 .32 1.95.46 2.93m2.91-25.47a14 14 0 0 1 14.42-3.31m-22.871 38.02c3.63 2.84 8.44 4.28 12.68 1.4a12.084 12.084 0 0 0 2.83-3.39" stroke="#000" stroke-width="2" stroke-linejoin="round"/><path fill-rule="evenodd" clip-rule="evenodd" d="M39.498 98.837c-3.28 1.54-.32 7.92 3 5.55 2.23-1.65 1.19-7.53-3-5.55z" fill="#000"/><path d="M28.548 34.217a11.13 11.13 0 0 0 4.56-6.07c.24-.88.42-2.67-.57-3.23-1.85-1.06-4.48 1.65-4.09 3.49.34 1.64 3.1 2.18 4.43 2.1 3.19-.21 5.45-2.84 6.18-5.81 2.51-10-6-26.26-17.83-23.09a15.31 15.31 0 0 0-7.32 4.54c-3 3.31-5.42 7.57-5.6 12.13-.33 8.76 6.86 16.61 15.4 17.44m-16.29 201.08c-8.23-33.18-3.13-52.74 11.78-64.11 8-6.12 15.18-11.51 23.41-14.74 2.39-.94 9.27-3.84 9.87-6.38.14-.64.09-2.59-.89-2.65-1.67-.12-1.49 5.61-1.41 6.51.55 6.31 6.08 11.06 12.38 7.93 5.28-2.62 6.22-7.88 5.19-13.12-.17-.87-1.63-6.64-3.36-6.2-2 .52 2.13 3.43 2.76 3.72 2.85 1.36 5.73.72 8.69 0 15.77-3.63 29-.38 39.67 11.19 10.35 11.23 9.71 13.3 14.37 26.66a46.728 46.728 0 0 1 2.73 12c0 .45.41 3.36-.19 3.68-1.79.93-1.93-3-2-3.77-.23-4.4 1.29-8.73 2.71-12.83 2-5.64 4.17-11.49 3.36-17.57" stroke="#000" stroke-width="2" stroke-linejoin="round"/><path d="M102.398 196.497c.92 9 5.5 16.68 10.68 23.87 3.52 4.88 7.49 9.529 12.86 12.419 10.21 5.48 23.59 5.12 30.08-5.51 2.84-4.67 4.12-10.229 4.67-15.609 1-9.61 1-19.39 1.36-29 .16-4.8 1.48-10.46.38-15.16-1.28-5.53-4.55-9.36-10.79-8.07-.77.148-1.526.363-2.26.64-.34.13-6.51 2.31-5.9 3.77 1.5 3.6 9.37 1.11 11.74 0 8.65-3.89 12.89-9.83 11.69-19.43m-6.18-21.271c-5.2 2.39-10.95 3-16.57 3.68-2.43.27-5.85 0-5.8-3.27.08-4.59 4.73-6.18 8.47-7 5.67-1.33 13.43-4.06 16.15 3.14.411.972.629 2.015.64 3.07 0 1.79-1.12 3.19-2.15 4.6-2.83 3.82-7 5.88-11.62 6.9-1.86.41-6.32 1.73-7.33-.86-1.21-3.09 2.82-5.78 5.26-6.51a32.094 32.094 0 0 1 6.55-.88c1.54-.13 3.66-.84 5.2-.52 2.62.55 4.3 4.33 4.88 6.63 1.39 5.54-6.14 7.2-10.13 8.38-1.26.38-2.46.92-3.74 1.23-2 .47-5.86.45-6.56-2.1-.61-2.26 2.38-4 4-4.82 2.54-1.23 5.48-1.54 8.25-1.9 3.26-.42 6.45-1.26 8.39 2.17a6.71 6.71 0 0 1-.73 7.56 11.822 11.822 0 0 1-3.87 2.26c-4.33 1.94-8.6 2.26-11.25-2.21" stroke="#000" stroke-width="2" stroke-linejoin="round"/><path d="M133.878 118.207c-2.54.49-5.44 1.63-6.78 4-2.19 3.91-.11 9.14 1.46 12.87a16.22 16.22 0 0 0 2.24 3.92 10.432 10.432 0 0 0 3.84 3c4 1.68 7.25-2.31 7.77-5.89.78-5.44-2.19-11.11-5.48-15.29m-1.349 23.059c-2 5.58 1.63 14.51 8.08 15.56m1.44-3.03c-.64-2.43.56-5.079 2.12-6.929m-8.211-44.17c1 2.88 2.17 5.72 3.24 8.58m4.621-9.31a89.696 89.696 0 0 0 2.14 9" stroke="#000" stroke-width="2" stroke-linejoin="round"/><path d="M92.659 41.497c2.33 9.34 4.19 18.8 6.41 28.17 1.68 7.1 4 14.05 5.68 21.15 1.41 5.85 2.9 11.55 4.72 17.29.42 1.29 1.8 3.75 1.42 5.18-.26 1-2.62 1.38-2.53 1 .33-1.41 2.12-2.19 3.3-2.7a49.745 49.745 0 0 1 10.54-2.83c7.15-1.31 14-3.3 21-5.2 3.93-1.07 8-1.67 11.81-3 4-1.43 7.82-3.48 11.81-5a55.865 55.865 0 0 1 12-3.21 30.978 30.978 0 0 1 4.08-.32h1.34c.23 0 .75.2.67 0-1-2.6-2.9-4.62-3.79-7.35-4.77-14.56-6.56-29.92-11-44.53a97.082 97.082 0 0 1-3.22-12.7c-.06-.35-.43-3.91-.82-4-.81-.28-4.14 1.38-4.92 1.65-4.64 1.58-9.51 2.47-14.21 3.86-9.21 2.72-18.69 4.69-28 7.27-7 1.94-13.72 4.9-20.68 7" stroke="#000" stroke-width="2" stroke-linejoin="round"/><path d="M115.508 80.917c1.35-3.06 4.93-2.93 7.66-2.36a49.193 49.193 0 0 1 17.76 7.24c1.26.89 4.23 4.85 1 5.47-1.07.21-1.15-2.7-1.13-3.14.22-3.22 1.46-6.41 2.58-9.4 4.69-12.52 9.11-25.18 15.16-37.13" stroke="#000" stroke-width="2" stroke-linejoin="round"/><path fill-rule="evenodd" clip-rule="evenodd" d="M59.788 95.477c-3.74.94-2.52 7.649 1.26 6.679a3.697 3.697 0 0 0 2.38-4.23c-.19-1-1.93-2.89-3.64-2.45z" fill="#000"/></svg>