<svg width="50" height="32" viewBox="0 0 50 32" fill="none" xmlns="http://www.w3.org/2000/svg">
<g clip-path="url(#clip0_78_4069)">
<path d="M39.8912 4.72778e-07H10.0821C8.77681 -0.000402136 7.48426 0.256339 6.27825 0.75556C5.07223 1.25478 3.97638 1.9867 3.05328 2.90951C2.13019 3.83233 1.39793 4.92795 0.898335 6.13382C0.398742 7.33968 0.141602 8.63214 0.141602 9.9374H0.141602C0.141602 12.573 1.18857 15.1006 3.0522 16.9642C4.91582 18.8278 7.44344 19.8748 10.079 19.8748H39.695C44.9312 19.8748 49.4225 15.9015 49.8018 10.6792C49.9036 9.31547 49.723 7.94541 49.2711 6.65472C48.8192 5.36403 48.1059 4.18048 47.1756 3.1781C46.2454 2.17573 45.1183 1.37611 43.8649 0.829257C42.6115 0.282409 41.2587 0.000103414 39.8912 4.72778e-07Z" fill="#00BD69"/>
<path d="M11.0392 25.6964H12.5335V25.8627C12.5335 26.337 12.4009 26.7125 12.1319 26.9899C11.863 27.2673 11.4959 27.4129 11.0392 27.4129C10.5825 27.4129 10.1962 27.2597 9.89892 26.9685C9.6016 26.6773 9.45064 26.2788 9.45064 25.773C9.45064 25.2673 9.6039 24.868 9.89433 24.573C10.1848 24.278 10.5694 24.1332 11.0346 24.1332C11.3784 24.1248 11.7156 24.2283 11.9955 24.4282C12.2623 24.6276 12.4438 24.9205 12.5036 25.2481L11.9787 25.3332C11.9458 25.1166 11.8329 24.9203 11.6622 24.783C11.4807 24.6466 11.2576 24.5771 11.0308 24.586C10.8876 24.5799 10.7447 24.604 10.6115 24.6568C10.4782 24.7097 10.3576 24.79 10.2576 24.8926C10.0652 25.0972 9.96713 25.3922 9.96713 25.7761C9.96713 26.16 10.0652 26.4512 10.2576 26.6558C10.3575 26.7586 10.4781 26.8391 10.6113 26.8919C10.7446 26.9447 10.8875 26.9687 11.0308 26.9623C11.2615 26.9719 11.4882 26.8994 11.6706 26.7577C11.8377 26.6252 11.9442 26.4198 11.9825 26.1447H11.0392V25.6964Z" fill="#467082"/>
<path d="M15.7634 24.573C16.0577 24.868 16.2071 25.2696 16.2071 25.7776C16.2071 26.2857 16.0623 26.6827 15.7742 26.9738C15.486 27.265 15.1036 27.4137 14.6423 27.4137C14.181 27.4137 13.8232 27.2727 13.5626 26.9907C13.3021 26.7087 13.1649 26.3378 13.1649 25.8635V25.573H15.6891C15.6875 25.4371 15.6587 25.3028 15.6043 25.1782C15.55 25.0535 15.4712 24.941 15.3726 24.8474C15.1724 24.6683 14.9108 24.5736 14.6423 24.583C14.4312 24.5743 14.2221 24.6276 14.0408 24.7362C13.8827 24.8337 13.768 24.9881 13.7205 25.1677L13.204 25.1209C13.2734 24.8306 13.4482 24.5763 13.6944 24.4075C13.9677 24.2201 14.2934 24.124 14.6247 24.1332C15.0891 24.1332 15.4676 24.2788 15.7634 24.573ZM15.3703 26.7125C15.5627 26.5455 15.6653 26.311 15.6868 26.0083H13.6753C13.6729 26.2635 13.7677 26.5101 13.9404 26.698C14.1067 26.8735 14.3412 26.9585 14.6446 26.9585C14.9087 26.9696 15.1674 26.8819 15.3703 26.7125Z" fill="#467082"/>
<path d="M19.4677 24.1761V27.37H19.0363L17.46 25.1156V27.37H16.952V24.1761H17.3834L18.9597 26.4374V24.1761H19.4677Z" fill="#467082"/>
<path d="M22.7958 24.4581C22.9305 24.564 23.0429 24.6956 23.1267 24.8451C23.2104 24.9946 23.2639 25.1591 23.2839 25.3293L22.7544 25.3761C22.7246 25.1471 22.6087 24.938 22.4303 24.7914C22.2454 24.651 22.0178 24.5784 21.7858 24.586C21.6424 24.5802 21.4995 24.6058 21.3671 24.6611C21.2347 24.7165 21.116 24.8002 21.0195 24.9063C20.8271 25.1201 20.7291 25.4098 20.7291 25.773C20.7291 26.1363 20.8271 26.4351 21.0279 26.6443C21.1261 26.7481 21.2451 26.83 21.3772 26.8844C21.5093 26.9388 21.6514 26.9646 21.7942 26.96C22.0242 26.9664 22.2496 26.8957 22.4349 26.7593C22.6099 26.6206 22.7257 26.4207 22.759 26.1999L23.2954 26.2474C23.2476 26.5842 23.0699 26.8889 22.8004 27.0964C22.5165 27.3103 22.1687 27.4219 21.8134 27.4129C21.3482 27.4129 20.9643 27.2673 20.6639 26.9731C20.3635 26.6788 20.2149 26.2834 20.2149 25.773C20.2149 25.2627 20.3681 24.868 20.6593 24.573C20.9505 24.278 21.3383 24.1331 21.8088 24.1331C22.1653 24.1252 22.5137 24.2399 22.7958 24.4581Z" fill="#467082"/>
<path d="M24.4985 24.1761V26.9172H26.0097V27.37H23.9904V24.1761H24.4985Z" fill="#467082"/>
<path d="M29.0182 24.573C29.3124 24.868 29.4618 25.2696 29.4618 25.7776C29.4618 26.2857 29.317 26.6826 29.0266 26.9731C28.7362 27.2635 28.3561 27.4129 27.8948 27.4129C27.4334 27.4129 27.0748 27.2719 26.815 26.9899C26.5553 26.7079 26.4173 26.337 26.4173 25.8627V25.5723H28.9408C28.9394 25.4363 28.9108 25.302 28.8566 25.1774C28.8023 25.0527 28.7236 24.9402 28.625 24.8466C28.4248 24.6677 28.1632 24.573 27.8948 24.5822C27.6836 24.5735 27.4745 24.6268 27.2932 24.7355C27.1351 24.8329 27.0205 24.9874 26.9729 25.1669L26.4556 25.1202C26.5257 24.8299 26.7006 24.5757 26.9468 24.4067C27.2215 24.2185 27.5489 24.1227 27.8817 24.1332C28.3415 24.1332 28.7247 24.2788 29.0182 24.573ZM28.625 26.7125C28.8174 26.5455 28.9193 26.311 28.9408 26.0083H26.93C26.9277 26.2634 27.0222 26.5098 27.1944 26.698C27.3614 26.8735 27.5959 26.9585 27.8994 26.9585C28.1634 26.9695 28.4221 26.8818 28.625 26.7125Z" fill="#467082"/>
<path d="M32.6665 27.37H32.0964L31.4213 26.1493H30.717V27.37H30.209V24.1761H31.4987C31.7647 24.1642 32.025 24.2562 32.2244 24.4328C32.4075 24.6075 32.5018 24.8504 32.5018 25.1623C32.5101 25.3605 32.4597 25.5567 32.3569 25.7263C32.2594 25.8777 32.1176 25.9954 31.9508 26.0635L32.6665 27.37ZM30.7109 25.6964H31.4328C31.5771 25.7018 31.7179 25.6513 31.8259 25.5554C31.8786 25.5051 31.9197 25.4438 31.9462 25.3759C31.9727 25.308 31.9839 25.2351 31.9791 25.1623C31.9839 25.0884 31.9727 25.0144 31.9462 24.9452C31.9198 24.876 31.8787 24.8134 31.8259 24.7615C31.7165 24.6684 31.5763 24.6195 31.4328 24.6244H30.7109V25.6964Z" fill="#467082"/>
<path d="M37.3011 24.1761L35.9555 27.37H35.5287L34.1876 24.1761H34.7348L35.7424 26.5907L36.7501 24.1738L37.3011 24.1761Z" fill="#467082"/>
<path d="M40.2475 24.573C40.5418 24.868 40.6912 25.2696 40.6912 25.7776C40.6912 26.2857 40.5464 26.6827 40.256 26.9731C39.9655 27.2635 39.5855 27.4129 39.1241 27.4129C38.6628 27.4129 38.305 27.2719 38.0444 26.9899C37.7839 26.7079 37.6467 26.337 37.6467 25.8627V25.5723H40.1709C40.1693 25.4363 40.1405 25.302 40.0861 25.1774C40.0318 25.0528 39.953 24.9403 39.8544 24.8466C39.6542 24.6675 39.3926 24.5728 39.1241 24.5822C38.913 24.5735 38.7039 24.6268 38.5226 24.7355C38.3645 24.8329 38.2498 24.9874 38.2023 25.1669L37.6858 25.1202C37.7552 24.8298 37.93 24.5756 38.1762 24.4067C38.4511 24.2185 38.7789 24.1227 39.1119 24.1332C39.5732 24.1332 39.9525 24.2788 40.2475 24.573ZM39.8544 26.7125C40.0468 26.5455 40.1495 26.311 40.1709 26.0083H38.1594C38.157 26.2635 38.2518 26.5101 38.4245 26.698C38.5908 26.8735 38.8253 26.9585 39.1287 26.9585C39.3928 26.9696 39.6515 26.8819 39.8544 26.7125Z" fill="#467082"/>
<path d="M10.0782 28.0075C10.1069 28.0353 10.1296 28.0685 10.145 28.1052C10.1604 28.142 10.1682 28.1815 10.1679 28.2213C10.169 28.2612 10.1616 28.3008 10.1461 28.3376C10.1306 28.3743 10.1075 28.4073 10.0782 28.4344C10.0505 28.4629 10.0174 28.4857 9.98069 28.5012C9.94403 28.5167 9.90463 28.5247 9.86482 28.5247C9.82502 28.5247 9.78562 28.5167 9.74896 28.5012C9.7123 28.4857 9.67913 28.4629 9.65141 28.4344C9.62215 28.4073 9.59901 28.3743 9.58355 28.3376C9.56808 28.3008 9.56065 28.2612 9.56175 28.2213C9.56148 28.1614 9.57906 28.1027 9.61227 28.0528C9.64547 28.0028 9.69279 27.9639 9.74819 27.941C9.8036 27.9181 9.86458 27.9121 9.92336 27.924C9.98213 27.9358 10.0361 27.9649 10.0782 28.0075ZM10.1035 28.806V32H9.59547V28.806H10.1035Z" fill="#467082"/>
<path d="M12.2576 28.806C12.7174 28.806 13.0898 28.947 13.3802 29.2336C13.6707 29.5202 13.8163 29.9126 13.8163 30.403C13.8163 30.8934 13.6707 31.2827 13.3764 31.5685C13.2268 31.712 13.0499 31.824 12.8564 31.8981C12.6628 31.9722 12.4563 32.0068 12.2492 32H10.9809V28.806H12.2576ZM11.4829 29.2421V31.5647H12.2492C12.3912 31.5701 12.5328 31.5456 12.6648 31.4928C12.7968 31.44 12.9163 31.3601 13.0155 31.2582C13.2078 31.0574 13.3021 30.7716 13.3021 30.3999C13.3021 30.0283 13.2078 29.7386 13.0155 29.5378C12.9161 29.4367 12.7965 29.3577 12.6644 29.3062C12.5323 29.2547 12.3908 29.2318 12.2492 29.239L11.4829 29.2421Z" fill="#467082"/>
<path d="M17.9259 28.806V32H17.4217V29.9164L16.4102 31.9747H16.0807L15.0607 29.9164V32H14.5527V28.806H15.001L16.2439 31.2444L17.4815 28.806H17.9259Z" fill="#467082"/>
<path d="M20.2838 28.806L21.6379 32H21.0823L20.7919 31.2873H19.349L19.0539 32H18.5037L19.8524 28.806H20.2838ZM20.0746 29.5493L19.5451 30.8344H20.6019L20.0746 29.5493Z" fill="#467082"/>
<path d="M24.7322 28.806V32H24.3008L22.7253 29.7455V32H22.2172V28.806H22.6448L24.2242 31.0651V28.806H24.7322Z" fill="#467082"/>
<path d="M29.2611 28.806V32H28.8304L27.2534 29.7455V32H26.7453V28.806H27.1721L28.7515 31.0651V28.806H29.2611Z" fill="#467082"/>
<path d="M31.6136 28.806L32.9669 32H32.4121L32.1217 31.2873H30.678L30.3837 32H29.8327L31.1822 28.806H31.6136ZM31.4044 29.5493L30.8749 30.8344H31.9293L31.4044 29.5493Z" fill="#467082"/>
<path d="M35.7532 28.806V29.1892L34.0888 31.5471H35.7884V32H33.4435V31.6168L35.0995 29.2551H33.4857V28.8068L35.7532 28.806Z" fill="#467082"/>
<path d="M36.8988 28.0076C36.9275 28.0353 36.9502 28.0685 36.9656 28.1053C36.981 28.142 36.9888 28.1815 36.9885 28.2214C36.9896 28.2612 36.9821 28.3008 36.9667 28.3376C36.9512 28.3743 36.9281 28.4073 36.8988 28.4344C36.8711 28.463 36.8379 28.4857 36.8013 28.5012C36.7646 28.5167 36.7252 28.5247 36.6854 28.5247C36.6456 28.5247 36.6062 28.5167 36.5695 28.5012C36.5329 28.4857 36.4997 28.463 36.472 28.4344C36.4426 28.4075 36.4193 28.3745 36.4038 28.3377C36.3884 28.3009 36.381 28.2613 36.3823 28.2214C36.3823 28.1407 36.4141 28.0634 36.4707 28.006C36.5274 27.9486 36.6044 27.9159 36.685 27.9149C36.7251 27.9149 36.7647 27.9232 36.8015 27.9392C36.8382 27.9551 36.8714 27.9784 36.8988 28.0076ZM36.9241 28.8061V32H36.416V28.8061H36.9241Z" fill="#467082"/>
<path d="M40.2606 32H39.6889L39.0138 30.7793H38.3096V32H37.8015V28.8061H39.0912C39.3572 28.7943 39.6174 28.8863 39.8169 29.0628C40 29.2375 40.0943 29.4804 40.0943 29.7923C40.1026 29.9904 40.0522 30.1867 39.9495 30.3563C39.8517 30.5076 39.71 30.6252 39.5433 30.6935L40.2606 32ZM38.3034 30.3264H39.0253C39.1696 30.3318 39.3104 30.2812 39.4184 30.1854C39.4712 30.1351 39.5122 30.0738 39.5387 30.0059C39.5652 29.9379 39.5764 29.865 39.5717 29.7923C39.5764 29.7184 39.5652 29.6443 39.5388 29.5752C39.5123 29.506 39.4713 29.4434 39.4184 29.3915C39.309 29.2984 39.1689 29.2495 39.0253 29.2543H38.3034V30.3264Z" fill="#467082"/>
<path d="M41.4162 28.806V31.5471H42.9273V32H40.9089V28.806H41.4162Z" fill="#467082"/>
<path d="M44.0109 28.0075C44.0395 28.0353 44.0622 28.0685 44.0776 28.1052C44.093 28.142 44.1008 28.1815 44.1005 28.2213C44.1016 28.2612 44.0942 28.3008 44.0787 28.3376C44.0633 28.3743 44.0401 28.4073 44.0109 28.4344C43.9831 28.4629 43.95 28.4857 43.9133 28.5012C43.8766 28.5167 43.8372 28.5247 43.7974 28.5247C43.7576 28.5247 43.7182 28.5167 43.6816 28.5012C43.6449 28.4857 43.6117 28.4629 43.584 28.4344C43.5548 28.4073 43.5316 28.3743 43.5162 28.3376C43.5007 28.3008 43.4933 28.2612 43.4944 28.2213C43.4941 28.1614 43.5117 28.1027 43.5449 28.0528C43.5781 28.0028 43.6254 27.9639 43.6808 27.941C43.7362 27.9181 43.7972 27.9121 43.856 27.924C43.9148 27.9358 43.9687 27.9649 44.0109 28.0075ZM44.0361 28.806V32H43.5281V28.806H44.0361Z" fill="#467082"/>
<path d="M47.5175 28.806L46.309 30.7149V32H45.8048V30.7149L44.5925 28.806H45.1818L46.0569 30.2107L46.9282 28.806H47.5175Z" fill="#467082"/>
<path d="M48.565 28.0076C48.5936 28.0353 48.6163 28.0685 48.6317 28.1053C48.6472 28.142 48.6549 28.1815 48.6546 28.2214C48.6557 28.2612 48.6483 28.3008 48.6328 28.3376C48.6174 28.3743 48.5942 28.4073 48.565 28.4344C48.5372 28.463 48.504 28.4857 48.4672 28.5012C48.4305 28.5168 48.391 28.5248 48.3512 28.5248C48.3113 28.5248 48.2718 28.5168 48.2351 28.5012C48.1984 28.4857 48.1652 28.463 48.1374 28.4344C48.1082 28.4072 48.0852 28.3742 48.0697 28.3375C48.0543 28.3008 48.0468 28.2612 48.0477 28.2214C48.0476 28.1815 48.0555 28.1421 48.0709 28.1054C48.0863 28.0686 48.1089 28.0354 48.1374 28.0076C48.1653 27.9791 48.1985 27.9566 48.2352 27.9412C48.272 27.9258 48.3114 27.9178 48.3512 27.9178C48.391 27.9178 48.4304 27.9258 48.4671 27.9412C48.5038 27.9566 48.5371 27.9791 48.565 28.0076ZM48.5903 28.806V32H48.0822V28.806H48.5903Z" fill="#467082"/>
<path d="M16.3504 12.5214H12.3258L11.2959 15.9H9.14182L13.0262 3.97479H15.7366L19.621 15.9H17.3987L16.3504 12.5214ZM15.8447 10.8593L14.3274 5.98097L12.8277 10.8593H15.8447Z" fill="white"/>
<path d="M21.5214 14.9965L27.0649 5.69131H21.1927L21.4456 3.97479H29.7929V4.87826L24.2456 14.1835H30.1538L29.9009 15.9H21.5214V14.9965Z" fill="white"/>
<path d="M32.5025 3.97479H40.2713L40.5242 5.69131H34.5263V8.85384H40.2736L40.5257 10.552H34.5263V14.1835H40.5257L40.2728 15.9H32.5025V3.97479Z" fill="white"/>
</g>
<defs>
<clipPath id="clip0_78_4069">
<rect width="49.687" height="32" fill="white" transform="translate(0.141602)"/>
</clipPath>
</defs>
</svg>
