<svg width="154" height="40" viewBox="0 0 154 40" fill="none" xmlns="http://www.w3.org/2000/svg">
<path d="M36.0597 9.9778H31.1288L24.3383 26.3768L23.2395 9.9778H18.2524L11.1523 29.9681H15.4077L19.9717 16.1131L20.8729 29.9681H26.6489L32.3686 16.2268L32.9602 29.9681H37.1583L36.0597 9.9778Z" fill="#1B4963"/>
<path d="M41.272 9.9778L39.187 29.9681H43.5254L45.6104 9.9778H41.272Z" fill="#1B4963"/>
<path d="M61.9517 9.9778L60.5713 24.4826L53.9784 9.9778H48.8219L46.7378 29.9681H51.0764L52.4848 15.8303L58.8813 29.9681H64.2061L66.2912 9.9778H61.9517Z" fill="#1B4963"/>
<path d="M81.8719 13.399L82.2377 9.9778H69.503L67.418 29.9681H80.8013L81.1673 26.5469H72.1232L72.6586 21.5423H80.4063L80.7452 18.3192H72.9964L73.5036 13.399H81.8719Z" fill="#1B4963"/>
<path d="M89.2823 20.6087C89.0007 20.6368 88.5777 20.6368 88.2117 20.6368L88.9725 13.399H91.5088C93.4806 13.399 94.7486 14.4172 94.7486 16.5657C94.7486 19.9025 92.1563 20.4679 89.2823 20.6087ZM92.4659 9.9778H84.9439L82.8589 29.9681H87.2252L87.8459 24.0583H88.7471C93.8183 24.0583 99.2846 21.9951 99.2846 16.0287C99.2846 11.9576 96.2411 9.9778 92.4659 9.9778Z" fill="#1B4963"/>
<path d="M104.327 15.1243C104.327 13.5409 106.102 13.2584 107.371 13.2584C108.976 13.2584 110.498 13.5409 111.963 14.1063L113.54 10.9957C111.541 10.0622 109.765 9.66685 107.399 9.66685C103.68 9.66685 100.017 11.4486 100.017 15.6321C100.017 21.5422 108.581 21.1457 108.581 24.2563C108.581 26.2642 106.244 26.6595 104.666 26.6595C102.721 26.6595 101.257 26.2361 99.4533 25.5852L97.9316 28.8939C99.8192 29.8263 102.158 30.3353 104.327 30.3353C108.441 30.3353 113.033 28.6111 113.033 23.6909C113.033 18.0929 104.327 17.8101 104.327 15.1243Z" fill="#1B4963"/>
<path d="M123.672 9.97772L123.278 13.8235L135.663 13.7954L118.733 28.4129L121.551 31.5222L142.676 13.2773L143.017 9.97772H123.672Z" fill="#00BD69"/>
</svg>
