<svg width="105" height="32" viewBox="0 0 105 32" fill="none" xmlns="http://www.w3.org/2000/svg">
<path d="M2.12314 9L0.333363 2.45455H1.13876L2.50666 7.78551H2.57058L3.96404 2.45455H4.85893L6.2524 7.78551H6.31632L7.68422 2.45455H8.48961L6.69984 9H5.88166L4.43706 3.78409H4.38592L2.94132 9H2.12314ZM10.9761 9.10227C10.5031 9.10227 10.0951 8.99787 9.75204 8.78906C9.41113 8.57812 9.14799 8.28409 8.96262 7.90696C8.77939 7.5277 8.68777 7.08665 8.68777 6.58381C8.68777 6.08097 8.77939 5.63778 8.96262 5.25426C9.14799 4.86861 9.40581 4.56818 9.73606 4.35298C10.0684 4.13565 10.4562 4.02699 10.8994 4.02699C11.1551 4.02699 11.4076 4.0696 11.6569 4.15483C11.9062 4.24006 12.1331 4.37855 12.3376 4.57031C12.5422 4.75994 12.7052 5.01136 12.8266 5.32457C12.9481 5.63778 13.0088 6.02344 13.0088 6.48153V6.80114H9.2247V6.14915H12.2417C12.2417 5.87216 12.1863 5.625 12.0756 5.40767C11.9669 5.19034 11.8113 5.01882 11.6089 4.89311C11.4086 4.7674 11.1721 4.70455 10.8994 4.70455C10.599 4.70455 10.339 4.77912 10.1196 4.92827C9.90226 5.07528 9.735 5.26705 9.61781 5.50355C9.50062 5.74006 9.44203 5.99361 9.44203 6.2642V6.69886C9.44203 7.0696 9.50595 7.38388 9.63379 7.64169C9.76376 7.89737 9.9438 8.09233 10.1739 8.22656C10.404 8.35866 10.6714 8.42472 10.9761 8.42472C11.1743 8.42472 11.3532 8.39702 11.5131 8.34162C11.675 8.28409 11.8145 8.19886 11.9317 8.08594C12.0489 7.97088 12.1395 7.82812 12.2034 7.65767L12.9321 7.86222C12.8554 8.10938 12.7265 8.3267 12.5454 8.5142C12.3643 8.69957 12.1405 8.84446 11.8742 8.94886C11.6079 9.05114 11.3085 9.10227 10.9761 9.10227ZM14.2584 9V2.45455H15.0127V4.87074H15.0766C15.132 4.78551 15.2087 4.67685 15.3067 4.54474C15.4069 4.41051 15.5496 4.29119 15.735 4.18679C15.9225 4.08026 16.176 4.02699 16.4957 4.02699C16.909 4.02699 17.2733 4.13033 17.5887 4.337C17.904 4.54368 18.1501 4.83665 18.327 5.21591C18.5038 5.59517 18.5922 6.04261 18.5922 6.55824C18.5922 7.07812 18.5038 7.52876 18.327 7.91016C18.1501 8.28942 17.9051 8.58345 17.5919 8.79226C17.2787 8.99893 16.9175 9.10227 16.5084 9.10227C16.1931 9.10227 15.9406 9.05007 15.751 8.94567C15.5613 8.83913 15.4154 8.71875 15.3131 8.58452C15.2108 8.44815 15.132 8.33523 15.0766 8.24574H14.9871V9H14.2584ZM14.9999 6.54545C14.9999 6.91619 15.0542 7.24325 15.1629 7.52663C15.2716 7.80788 15.4303 8.02841 15.6391 8.18821C15.8479 8.34588 16.1036 8.42472 16.4062 8.42472C16.7215 8.42472 16.9846 8.34162 17.1956 8.17543C17.4086 8.0071 17.5684 7.78125 17.675 7.49787C17.7836 7.21236 17.838 6.89489 17.838 6.54545C17.838 6.20028 17.7847 5.8892 17.6782 5.61222C17.5738 5.3331 17.415 5.11257 17.202 4.95064C16.991 4.78658 16.7258 4.70455 16.4062 4.70455C16.0993 4.70455 15.8415 4.78232 15.6327 4.93786C15.4239 5.09126 15.2662 5.30646 15.1597 5.58345C15.0532 5.85831 14.9999 6.17898 14.9999 6.54545ZM23.2233 5.19034L22.5457 5.3821C22.5031 5.26918 22.4403 5.15945 22.3572 5.05291C22.2762 4.94425 22.1654 4.85476 22.0248 4.78445C21.8841 4.71413 21.7041 4.67898 21.4846 4.67898C21.1842 4.67898 20.9339 4.74822 20.7336 4.88672C20.5354 5.02308 20.4363 5.19673 20.4363 5.40767C20.4363 5.59517 20.5045 5.74325 20.6409 5.85192C20.7773 5.96058 20.9903 6.05114 21.2801 6.12358L22.0088 6.30256C22.4477 6.40909 22.7748 6.57209 22.99 6.79155C23.2052 7.00888 23.3128 7.28906 23.3128 7.6321C23.3128 7.91335 23.2318 8.16477 23.0699 8.38636C22.9101 8.60795 22.6863 8.78267 22.3987 8.91051C22.1111 9.03835 21.7765 9.10227 21.3952 9.10227C20.8944 9.10227 20.48 8.99361 20.1519 8.77628C19.8238 8.55895 19.616 8.24148 19.5287 7.82386L20.2446 7.64489C20.3128 7.90909 20.4417 8.10724 20.6313 8.23935C20.8231 8.37145 21.0734 8.4375 21.3824 8.4375C21.7339 8.4375 22.0131 8.36293 22.2197 8.21378C22.4285 8.0625 22.5329 7.88139 22.5329 7.67045C22.5329 7.5 22.4733 7.35724 22.354 7.24219C22.2346 7.125 22.0514 7.03764 21.8042 6.98011L20.9861 6.78835C20.5365 6.68182 20.2062 6.51669 19.9953 6.29297C19.7865 6.06712 19.6821 5.7848 19.6821 5.44602C19.6821 5.16903 19.7599 4.92401 19.9154 4.71094C20.0731 4.49787 20.2872 4.33061 20.5578 4.20916C20.8305 4.08771 21.1395 4.02699 21.4846 4.02699C21.9704 4.02699 22.3518 4.13352 22.6288 4.34659C22.9079 4.55966 23.1061 4.84091 23.2233 5.19034ZM24.4482 9V4.09091H25.2024V9H24.4482ZM24.8317 3.27273C24.6847 3.27273 24.5579 3.22266 24.4513 3.12251C24.3469 3.02237 24.2947 2.90199 24.2947 2.76136C24.2947 2.62074 24.3469 2.50036 24.4513 2.40021C24.5579 2.30007 24.6847 2.25 24.8317 2.25C24.9787 2.25 25.1044 2.30007 25.2088 2.40021C25.3153 2.50036 25.3686 2.62074 25.3686 2.76136C25.3686 2.90199 25.3153 3.02237 25.2088 3.12251C25.1044 3.22266 24.9787 3.27273 24.8317 3.27273ZM28.7188 4.09091V4.73011H26.1748V4.09091H28.7188ZM26.9163 2.91477H27.6705V7.59375C27.6705 7.80682 27.7014 7.96662 27.7632 8.07315C27.8271 8.17756 27.9081 8.24787 28.0061 8.28409C28.1063 8.31818 28.2117 8.33523 28.3225 8.33523C28.4056 8.33523 28.4738 8.33097 28.5271 8.32244C28.5803 8.31179 28.623 8.30327 28.6549 8.29688L28.8083 8.97443C28.7572 8.99361 28.6858 9.01278 28.5942 9.03196C28.5026 9.05327 28.3865 9.06392 28.2458 9.06392C28.0328 9.06392 27.824 9.01811 27.6194 8.92649C27.417 8.83487 27.2487 8.69531 27.1144 8.50781C26.9823 8.32031 26.9163 8.08381 26.9163 7.7983V2.91477ZM31.8589 9.10227C31.3859 9.10227 30.9779 8.99787 30.6349 8.78906C30.2939 8.57812 30.0308 8.28409 29.8454 7.90696C29.6622 7.5277 29.5706 7.08665 29.5706 6.58381C29.5706 6.08097 29.6622 5.63778 29.8454 5.25426C30.0308 4.86861 30.2886 4.56818 30.6189 4.35298C30.9513 4.13565 31.339 4.02699 31.7822 4.02699C32.0379 4.02699 32.2904 4.0696 32.5397 4.15483C32.789 4.24006 33.0159 4.37855 33.2204 4.57031C33.425 4.75994 33.588 5.01136 33.7094 5.32457C33.8309 5.63778 33.8916 6.02344 33.8916 6.48153V6.80114H30.1075V6.14915H33.1246C33.1246 5.87216 33.0692 5.625 32.9584 5.40767C32.8497 5.19034 32.6942 5.01882 32.4917 4.89311C32.2915 4.7674 32.055 4.70455 31.7822 4.70455C31.4818 4.70455 31.2219 4.77912 31.0024 4.92827C30.7851 5.07528 30.6178 5.26705 30.5006 5.50355C30.3834 5.74006 30.3248 5.99361 30.3248 6.2642V6.69886C30.3248 7.0696 30.3888 7.38388 30.5166 7.64169C30.6466 7.89737 30.8266 8.09233 31.0567 8.22656C31.2868 8.35866 31.5542 8.42472 31.8589 8.42472C32.0571 8.42472 32.2361 8.39702 32.3959 8.34162C32.5578 8.28409 32.6974 8.19886 32.8145 8.08594C32.9317 7.97088 33.0223 7.82812 33.0862 7.65767L33.8149 7.86222C33.7382 8.10938 33.6093 8.3267 33.4282 8.5142C33.2471 8.69957 33.0233 8.84446 32.757 8.94886C32.4907 9.05114 32.1913 9.10227 31.8589 9.10227ZM37.6725 9V2.45455H38.4268V4.87074H38.4907C38.5461 4.78551 38.6228 4.67685 38.7208 4.54474C38.8209 4.41051 38.9637 4.29119 39.1491 4.18679C39.3366 4.08026 39.5901 4.02699 39.9097 4.02699C40.3231 4.02699 40.6874 4.13033 41.0028 4.337C41.3181 4.54368 41.5642 4.83665 41.741 5.21591C41.9179 5.59517 42.0063 6.04261 42.0063 6.55824C42.0063 7.07812 41.9179 7.52876 41.741 7.91016C41.5642 8.28942 41.3192 8.58345 41.0059 8.79226C40.6927 8.99893 40.3316 9.10227 39.9225 9.10227C39.6072 9.10227 39.3547 9.05007 39.165 8.94567C38.9754 8.83913 38.8295 8.71875 38.7272 8.58452C38.6249 8.44815 38.5461 8.33523 38.4907 8.24574H38.4012V9H37.6725ZM38.414 6.54545C38.414 6.91619 38.4683 7.24325 38.577 7.52663C38.6856 7.80788 38.8444 8.02841 39.0532 8.18821C39.262 8.34588 39.5177 8.42472 39.8202 8.42472C40.1356 8.42472 40.3987 8.34162 40.6096 8.17543C40.8227 8.0071 40.9825 7.78125 41.089 7.49787C41.1977 7.21236 41.252 6.89489 41.252 6.54545C41.252 6.20028 41.1988 5.8892 41.0922 5.61222C40.9878 5.3331 40.8291 5.11257 40.616 4.95064C40.4051 4.78658 40.1398 4.70455 39.8202 4.70455C39.5134 4.70455 39.2556 4.78232 39.0468 4.93786C38.838 5.09126 38.6803 5.30646 38.5738 5.58345C38.4672 5.85831 38.414 6.17898 38.414 6.54545ZM43.4701 10.8409C43.3422 10.8409 43.2282 10.8303 43.1281 10.8089C43.028 10.7898 42.9587 10.7706 42.9204 10.7514L43.1121 10.0866C43.2954 10.1335 43.4573 10.1506 43.5979 10.1378C43.7385 10.125 43.8632 10.0621 43.9719 9.94922C44.0827 9.83842 44.1839 9.65838 44.2755 9.40909L44.4161 9.02557L42.6008 4.09091H43.4189L44.7741 8.00284H44.8252L46.1803 4.09091H46.9985L44.9147 9.71591C44.8209 9.96946 44.7048 10.1793 44.5663 10.3455C44.4278 10.5138 44.267 10.6385 44.0837 10.7195C43.9026 10.8004 43.6981 10.8409 43.4701 10.8409ZM48.5438 9.05114C48.3861 9.05114 48.2508 8.99467 48.1379 8.88175C48.0249 8.76882 47.9685 8.63352 47.9685 8.47585C47.9685 8.31818 48.0249 8.18288 48.1379 8.06996C48.2508 7.95703 48.3861 7.90057 48.5438 7.90057C48.7014 7.90057 48.8367 7.95703 48.9497 8.06996C49.0626 8.18288 49.1191 8.31818 49.1191 8.47585C49.1191 8.58026 49.0924 8.67614 49.0392 8.76349C48.988 8.85085 48.9188 8.92116 48.8314 8.97443C48.7462 9.02557 48.6503 9.05114 48.5438 9.05114ZM48.5438 5.40767C48.3861 5.40767 48.2508 5.35121 48.1379 5.23828C48.0249 5.12536 47.9685 4.99006 47.9685 4.83239C47.9685 4.67472 48.0249 4.53942 48.1379 4.42649C48.2508 4.31357 48.3861 4.2571 48.5438 4.2571C48.7014 4.2571 48.8367 4.31357 48.9497 4.42649C49.0626 4.53942 49.1191 4.67472 49.1191 4.83239C49.1191 4.93679 49.0924 5.03267 49.0392 5.12003C48.988 5.20739 48.9188 5.2777 48.8314 5.33097C48.7462 5.3821 48.6503 5.40767 48.5438 5.40767Z" fill="#98A2B3"/>
<path d="M17.4666 21.9824C18.1767 22.7327 18.5306 23.7415 18.5306 25.0138V31.8595H14.9572V26.0376C14.9572 25.4228 14.7966 24.936 14.4754 24.5822C14.1541 24.2284 13.72 24.0502 13.1705 24.0502C12.5406 24.0627 12.0437 24.2936 11.6749 24.7428C11.306 25.192 11.1228 25.7767 11.1228 26.4994V31.8595H7.54939V26.0376C7.54939 25.4228 7.38878 24.936 7.06758 24.5822C6.74637 24.2284 6.31224 24.0502 5.76268 24.0502C5.13282 24.0627 4.63094 24.2936 4.25703 24.7428C3.88313 25.192 3.69493 25.7767 3.69493 26.4994V31.8595H0.141602V20.9987H3.69493V22.7854C4.06883 22.1556 4.55566 21.6788 5.15039 21.3501C5.74512 21.0213 6.43772 20.8582 7.22818 20.8582C8.11149 20.8582 8.86682 21.0715 9.49668 21.5006C10.1265 21.9297 10.5732 22.5245 10.8417 23.2873C11.1905 22.4843 11.6874 21.8795 12.3373 21.4705C12.9873 21.0615 13.7526 20.8582 14.636 20.8582C15.8129 20.8582 16.7564 21.2321 17.4666 21.9824Z" fill="#98A2B3"/>
<path d="M23.5822 16.532C23.936 16.8858 24.1142 17.345 24.1142 17.9072C24.1142 18.4567 23.936 18.9109 23.5822 19.2723C23.2284 19.6336 22.7767 19.8143 22.2271 19.8143C21.6776 19.8143 21.2259 19.6336 20.872 19.2723C20.5182 18.9109 20.34 18.4567 20.34 17.9072C20.34 17.345 20.5182 16.8858 20.872 16.532C21.2259 16.1782 21.6776 16 22.2271 16C22.7767 16 23.2284 16.1782 23.5822 16.532ZM20.4806 20.9987H24.0339V31.8595H20.4806V20.9987Z" fill="#98A2B3"/>
<path d="M31.1981 23.8294C30.5557 23.8294 30.0338 24.0728 29.6323 24.5621C29.2308 25.0514 29.03 25.6838 29.03 26.4592C29.03 27.2497 29.2308 27.8846 29.6323 28.3664C30.0338 28.8482 30.5557 29.0891 31.1981 29.0891C32.1893 29.0891 32.897 28.6801 33.3261 27.8645L35.956 29.3701C35.5269 30.2008 34.8845 30.8432 34.0287 31.2974C33.173 31.7516 32.1693 31.9799 31.0174 31.9799C29.9058 31.9799 28.9296 31.7516 28.0865 31.2974C27.2433 30.8432 26.5908 30.2008 26.1291 29.3701C25.6674 28.5395 25.4365 27.5759 25.4365 26.4793C25.4365 25.3676 25.6699 24.389 26.1392 23.5383C26.6084 22.6876 27.2659 22.0326 28.1166 21.5709C28.9673 21.1092 29.9459 20.8783 31.0576 20.8783C32.1417 20.8783 33.1053 21.1016 33.9484 21.5508C34.7916 22 35.4466 22.6324 35.9158 23.4479L33.3261 24.9536C32.8192 24.2033 32.109 23.8294 31.1981 23.8294Z" fill="#98A2B3"/>
<path d="M42.1189 21.3601C42.7136 21.0263 43.3937 20.8582 44.1565 20.8582V24.1305C44.0361 24.1179 43.8554 24.1104 43.6145 24.1104C42.7713 24.1104 42.0888 24.3087 41.5668 24.7026C41.0449 25.0966 40.7437 25.6361 40.6634 26.3187V31.8595H37.09V20.9987H40.6634V22.8055C41.0399 22.1757 41.5242 21.6938 42.1189 21.3601Z" fill="#98A2B3"/>
<path d="M53.5696 21.5709C54.4655 22.0326 55.1631 22.6826 55.6574 23.5182C56.1518 24.3538 56.4002 25.3225 56.4002 26.4191C56.4002 27.5307 56.1518 28.5044 55.6574 29.34C55.1631 30.1757 54.4655 30.8256 53.5696 31.2873C52.6738 31.7491 51.6349 31.9799 50.4579 31.9799C49.281 31.9799 48.2421 31.7491 47.3463 31.2873C46.4504 30.8256 45.7578 30.1757 45.2685 29.34C44.7792 28.5044 44.5357 27.5307 44.5357 26.4191C44.5357 25.3225 44.7792 24.3538 45.2685 23.5182C45.7578 22.6826 46.4504 22.0326 47.3463 21.5709C48.2421 21.1092 49.281 20.8783 50.4579 20.8783C51.6349 20.8783 52.6738 21.1092 53.5696 21.5709ZM48.7716 24.5119C48.3425 25.0063 48.1292 25.6562 48.1292 26.4592C48.1292 27.2748 48.3425 27.9322 48.7716 28.4266C49.2007 28.921 49.7628 29.1694 50.4579 29.1694C51.1681 29.1694 51.7352 28.921 52.1643 28.4266C52.5935 27.9322 52.8068 27.2748 52.8068 26.4592C52.8068 25.6562 52.5884 25.0063 52.1543 24.5119C51.7202 24.0176 51.1531 23.7691 50.4579 23.7691C49.7628 23.7691 49.2007 24.0176 48.7716 24.5119Z" fill="#98A2B3"/>
<path d="M62.8669 23.8294C62.2245 23.8294 61.7025 24.0728 61.301 24.5621C60.8995 25.0514 60.6987 25.6838 60.6987 26.4592C60.6987 27.2497 60.8995 27.8846 61.301 28.3664C61.7025 28.8482 62.2245 29.0891 62.8669 29.0891C63.8581 29.0891 64.5657 28.6801 64.9949 27.8645L67.6247 29.3701C67.1956 30.2008 66.5532 30.8432 65.6975 31.2974C64.8418 31.7516 63.838 31.9799 62.6862 31.9799C61.5745 31.9799 60.5984 31.7516 59.7552 31.2974C58.912 30.8432 58.2596 30.2008 57.7979 29.3701C57.3361 28.5395 57.1053 27.5759 57.1053 26.4793C57.1053 25.3676 57.3387 24.389 57.8079 23.5383C58.2772 22.6876 58.9346 22.0326 59.7853 21.5709C60.636 21.1092 61.6147 20.8783 62.7263 20.8783C63.8104 20.8783 64.774 21.1016 65.6172 21.5508C66.4604 22 67.1153 22.6324 67.5846 23.4479L64.9949 24.9536C64.4854 24.2033 63.7778 23.8294 62.8669 23.8294Z" fill="#98A2B3"/>
<path d="M76.9345 21.5709C77.8303 22.0326 78.5279 22.6826 79.0223 23.5182C79.5167 24.3538 79.7651 25.3225 79.7651 26.4191C79.7651 27.5307 79.5167 28.5044 79.0223 29.34C78.5279 30.1757 77.8303 30.8256 76.9345 31.2873C76.0386 31.7491 74.9997 31.9799 73.8228 31.9799C72.6459 31.9799 71.607 31.7491 70.7111 31.2873C69.8153 30.8256 69.1227 30.1757 68.6333 29.34C68.144 28.5044 67.9006 27.5307 67.9006 26.4191C67.9006 25.3225 68.144 24.3538 68.6333 23.5182C69.1227 22.6826 69.8153 22.0326 70.7111 21.5709C71.607 21.1092 72.6459 20.8783 73.8228 20.8783C74.9997 20.8783 76.0361 21.1092 76.9345 21.5709ZM72.1365 24.5119C71.7074 25.0063 71.4941 25.6562 71.4941 26.4592C71.4941 27.2748 71.7074 27.9322 72.1365 28.4266C72.5656 28.921 73.1277 29.1694 73.8228 29.1694C74.533 29.1694 75.1001 28.921 75.5292 28.4266C75.9583 27.9322 76.1716 27.2748 76.1716 26.4592C76.1716 25.6562 75.9533 25.0063 75.5192 24.5119C75.085 24.0176 74.5179 23.7691 73.8228 23.7691C73.1277 23.7691 72.5631 24.0176 72.1365 24.5119Z" fill="#98A2B3"/>
<path d="M92.3122 16.9636V31.8595H88.7388V30.4542C88.3649 30.9636 87.9057 31.3476 87.3636 31.6085C86.8216 31.8695 86.2093 32 85.5267 32C84.523 32 83.6397 31.7666 82.8768 31.2974C82.1139 30.8281 81.5217 30.1707 81.1001 29.32C80.6786 28.4693 80.4678 27.4906 80.4678 26.3789C80.4678 25.2823 80.676 24.3187 81.0901 23.4881C81.5042 22.6575 82.0863 22.0151 82.8366 21.5609C83.587 21.1067 84.4552 20.8783 85.4464 20.8783C86.1415 20.8783 86.7689 21.0113 87.3235 21.2798C87.878 21.5483 88.3498 21.9297 88.7388 22.4241V16.9636H92.3122ZM88.0964 28.4366C88.5255 27.9348 88.7388 27.2823 88.7388 26.4793C88.7388 25.6637 88.5255 25.0063 88.0964 24.5119C87.6673 24.0176 87.1052 23.7691 86.4101 23.7691C85.7149 23.7691 85.1478 24.0201 84.7137 24.522C84.2796 25.0238 84.0612 25.6763 84.0612 26.4793C84.0612 27.2823 84.2796 27.9348 84.7137 28.4366C85.1478 28.9385 85.7149 29.1895 86.4101 29.1895C87.1077 29.1895 87.6698 28.9385 88.0964 28.4366Z" fill="#98A2B3"/>
<path d="M103.524 22.4442C104.475 23.4881 104.95 24.921 104.95 26.7403C104.95 27.0213 104.942 27.2346 104.929 27.3827H97.3812C97.5543 27.9975 97.8555 28.4693 98.2846 28.798C98.7137 29.1267 99.2356 29.2898 99.8504 29.2898C100.32 29.2898 100.771 29.197 101.206 29.0088C101.64 28.8206 102.039 28.5471 102.4 28.1857L104.267 30.0527C103.705 30.6826 103.025 31.1594 102.229 31.4881C101.434 31.8168 100.533 31.9799 99.5292 31.9799C98.3649 31.9799 97.3486 31.7516 96.4778 31.2974C95.607 30.8432 94.942 30.2008 94.4803 29.3701C94.0186 28.5395 93.7877 27.5759 93.7877 26.4793C93.7877 25.3676 94.0211 24.389 94.4903 23.5383C94.9596 22.6876 95.6221 22.0326 96.4778 21.5709C97.3335 21.1092 98.3247 20.8783 99.4489 20.8783C101.216 20.8783 102.573 21.4003 103.524 22.4442ZM101.477 25.4755C101.477 24.8457 101.293 24.3413 100.924 23.9599C100.556 23.5784 100.071 23.3877 99.469 23.3877C98.9069 23.3877 98.4351 23.5759 98.0537 23.9498C97.6723 24.3237 97.4213 24.8331 97.3009 25.4755H101.477Z" fill="#98A2B3"/>
</svg>
