<svg width="285" height="169" fill="none" xmlns="http://www.w3.org/2000/svg"><path d="M61.286 126.985c4.36 13.62 7.63 27.71 11.39 41.51m-1.59-37.25c4 11.45 7 23.23 10.62 34.82m-1.75-100.47c8.42-2.43 17.7-3.95 26.37-5.3 1.23-.19 7.15-2 8-1.26 2.23 1.85 2.85 9.14 3.39 11.88 2.07 10.58 5.88 23.25 5.07 34.18l-3.87.36c-4 .53-8.05 1-12.06 1.74a157.274 157.274 0 0 1-16.49 2c-.67 0-4.81.63-5.08.19-2.3-3.86-2.15-11.62-2.85-15.92-2.54-15.65-5.8-33.41 3.2-47.59 4.5-7.09 12.92-13.27 21.81-10.35 7 2.28 11.24 10.78 13.84 17.07 5.25 12.71 11.91 45 10.47 59.36 0 .33-8.73 1.13-9.5 1.25-10.94 1.58-22 1.32-33 3.25-16.47 2.89-32.77 6.67-49.25 9.45-6.29 1.06-15.21 4.39-21.51 2-7.63-2.85-9.78-13.51-11.85-20.43-4.52-15.2-10.29-50.48 4.55-62.92 4.29-3.59 11.46-3.94 16.73-4.88 14.06-2.5 28.21-3.81 42.41-5.1 4.5-.4 18.81.78 20.79-4.31 5.39-13.77-18.67-36.25-32.27-26.29-3.17 2.31-2.64 12.93.84 15.13 2.58 1.63 7.63.75 10.54.47 4.62-.46 9.22-1.75 13.85-2" stroke="#000" stroke-width="2" stroke-linejoin="round"/><path d="M110.636 64.065c-4.89 7-10 14-14.62 21.18-.58.9-3.59 6.56-4.58 6.53-3.12-.09-6.66-2.39-9.33-3.94m106.94-9.92c-6.24 2.83-12.46 4-17.28 9.06-.83.88-2.48 3.34-.65 4.8 2 1.62 4.44-.76 5.14-2.33 1.86-4.1-6.21-12-11.68-18.13a182.13 182.13 0 0 1-13.81-17.64c-2.77-3.89-5.91-8.63-5.91-8.63s18.66 4.6 27 7.14c9.1 2.76 18.94 3.4 28.26 5.38 2.09.45 15.67 3.46 16.39 4.43 1.49 2 .09 8.39-1 10.38" stroke="#000" stroke-width="2" stroke-linejoin="round"/><path d="M144.856 50.315c-2.64 13.8-4.57 21.87-6.13 27.6-2 7.48-5.53 17.95-4.67 20 .62 1.45 7.2 3.39 8.51 3.9 6.52 2.53 13.5 4.15 20.26 5.91 9.45 2.46 18.83 5.06 28.32 7.34l11.16 2.74s6.63-20 8.7-27.15" stroke="#000" stroke-width="2" stroke-linejoin="round"/><path d="M230.006 99.015c-2.94-.88-6.18-1-9-2.23a22.437 22.437 0 0 1-4.65-3.16 60.718 60.718 0 0 1-7.19-5.89c-.46-.47-.89-1-1.33-1.46-.44-.46-.69-.79-1-1.22-.9-1.21-3.25-6.19.17-6.22 2.73 0 2.09 4.35 1.32 5.8a12.163 12.163 0 0 1-2.23 2.83c-2.82 2.8-9.87 7.84-13.58 3.35-1.81-2.18-1.35-5.41-.36-7.84a22.569 22.569 0 0 1 8.4-9.87 12.002 12.002 0 0 1 4.11-2.21c2.57-.47 5 1.27 7.14 2.37 4.9 2.46 10 5.16 14.09 8.88m-7.87-14.19c3.67 1.81 7.8 4.11 10.68 7a38.121 38.121 0 0 1 5.38 7.7 24.474 24.474 0 0 1 3.31 7.46c.42 2.16 1.34 6.67.26 8.89-.13.26-1.45-.63-1.56-.72-.83-.69-3.06-3.79-1.76-4.91.72-.62 1.87-.25 2.65 0a35.111 35.111 0 0 1 6.63 3c9.94 5.38 19.44 11.33 29.68 16.16 3.44 1.62 7.28 4.32 11.05 5m-80.24-4.75c6.75 0 14 2.31 20.74 1.08 1.49-.28 5.63-1.27 5.6-3.41 0-1.22-1.44-1.72-2.44-1.82a4.87 4.87 0 0 0-4.75 2.26c-2.82 5.52 4.41 10.19 7.6 13.31 2.55 2.49 4.83 5.24 7.4 7.71 2.83 2.73 5.94 5.16 8.81 7.86 2.06 2 3.92 4.18 6.15 5.94 2.87 2.25 6.23 3.72 9.2 5.82" stroke="#000" stroke-width="2" stroke-linejoin="round"/></svg>