<svg width="20" height="20" viewBox="0 0 20 20" fill="none" xmlns="http://www.w3.org/2000/svg">
<path d="M3.48254 9.32885L3.48256 9.3289L3.48924 9.32603L8.23924 7.28436L8.2525 7.27866L8.2654 7.27221C8.42856 7.19063 8.55339 7.06061 8.63658 6.93204C8.71923 6.80431 8.7918 6.62981 8.7918 6.43333V3.88333C8.7918 3.59797 8.90097 3.24806 9.10236 2.9198C9.30275 2.59317 9.56474 2.33646 9.81817 2.20418C9.92629 2.15123 10.0584 2.15138 10.1664 2.20464C10.4249 2.33765 10.6889 2.59346 10.8897 2.9175C11.0913 3.24285 11.2001 3.59009 11.2001 3.875V6.425C11.2001 6.62148 11.2727 6.79598 11.3553 6.92371C11.4385 7.05227 11.5634 7.1823 11.7265 7.26388L11.7407 7.27097L11.7553 7.27715L11.9384 7.35461L8.77149 10.5215C8.72165 10.308 8.60446 10.1083 8.40165 9.9744C8.11939 9.78805 7.78559 9.80457 7.50962 9.92457C7.5093 9.92471 7.50899 9.92485 7.50867 9.92498L3.3358 11.7241C3.11842 11.8176 3.00483 11.7756 2.96389 11.7489C2.92365 11.7227 2.8418 11.6384 2.8418 11.4083V10.3083C2.8418 10.1425 2.90742 9.92992 3.03823 9.73014C3.16925 9.53005 3.33465 9.38989 3.48254 9.32885Z" fill="#009754" stroke="#009754"/>
<path opacity="0.4" d="M12.4889 9.92417L12.489 9.92401L12.4767 9.91908C12.2069 9.81116 11.8771 9.792 11.5956 9.97687C11.3109 10.1639 11.1993 10.4783 11.1993 10.775V13.2C11.1993 13.3782 11.2467 13.5604 11.3085 13.7113C11.3687 13.8583 11.4634 14.0266 11.5997 14.1575L13.5283 16.0944L13.5291 16.0952C13.5453 16.1114 13.5829 16.1676 13.6046 16.2625C13.6261 16.3566 13.6182 16.4288 13.6083 16.4585L13.608 16.4596L13.2341 17.5895C13.234 17.5899 13.2338 17.5904 13.2337 17.5908C13.1698 17.7769 12.9691 17.8711 12.7891 17.8111L10.8647 16.1939C10.3779 15.777 9.61243 15.777 9.12562 16.1939L7.19799 17.8138C7.02298 17.8757 6.83136 17.7804 6.77756 17.6041L6.77769 17.604L6.77401 17.5929L6.40004 16.4627C6.39993 16.4624 6.39982 16.4621 6.39972 16.4617C6.3877 16.4236 6.38154 16.3498 6.40219 16.2601C6.42334 16.1683 6.46019 16.1129 6.47787 16.0952L6.47863 16.0944L8.41121 14.1535C8.41133 14.1534 8.41145 14.1533 8.41157 14.1532C8.54193 14.0227 8.63393 13.8545 8.69272 13.7076C8.75211 13.5591 8.79932 13.3779 8.79932 13.2V11.9071L12.9298 7.77664L16.51 9.31759L16.5107 9.31789C16.6622 9.38283 16.8293 9.52686 16.9607 9.72833C17.0921 9.92974 17.1577 10.1425 17.1577 10.3083V11.4083C17.1577 11.6384 17.0758 11.7226 17.0356 11.7489C16.9946 11.7756 16.881 11.8176 16.6636 11.724L12.4889 9.92417Z" fill="#009754" stroke="#009754"/>
</svg>
