<svg width="20" height="20" viewBox="0 0 20 20" fill="none" xmlns="http://www.w3.org/2000/svg">
<path d="M7.52552 18.075L9.46719 16.4417C9.75885 16.1917 10.2422 16.1917 10.5339 16.4417L12.4755 18.075C12.9255 18.3 13.4755 18.075 13.6422 17.5917L14.0089 16.4833C14.1005 16.2167 14.0089 15.825 13.8089 15.625L11.9172 13.725C11.7755 13.5917 11.6672 13.325 11.6672 13.1333V10.7583C11.6672 10.4083 11.9255 10.2417 12.2505 10.375L16.3422 12.1417C16.9839 12.4167 17.5089 12.075 17.5089 11.375V10.3C17.5089 9.74165 17.0922 9.09999 16.5755 8.88332L11.9172 6.87499C11.7839 6.81666 11.6672 6.64166 11.6672 6.49166V3.99165C11.6672 3.20832 11.0922 2.28332 10.3922 1.92499C10.1422 1.79999 9.85052 1.79999 9.60052 1.92499C8.90052 2.28332 8.32552 3.21665 8.32552 3.99999V6.49999C8.32552 6.64999 8.20885 6.82499 8.07552 6.88332L3.42552 8.89166C2.90885 9.09999 2.49219 9.74165 2.49219 10.3V11.375C2.49219 12.075 3.01719 12.4167 3.65885 12.1417L7.75052 10.375C8.06719 10.2333 8.33385 10.4083 8.33385 10.7583V13.1333C8.33385 13.325 8.22552 13.5917 8.09219 13.725L6.20052 15.625C6.00052 15.825 5.90885 16.2083 6.00052 16.4833L6.36719 17.5917C6.51719 18.075 7.06719 18.3083 7.52552 18.075Z" stroke="#667085" stroke-width="1.5" stroke-linecap="round" stroke-linejoin="round"/>
</svg>
