<svg width="20" height="20" viewBox="0 0 20 20" fill="none" xmlns="http://www.w3.org/2000/svg">
<g opacity="0.4">
<mask id="path-1-inside-1_515_23091" fill="white">
<path d="M1.75 18.3333V5.02501C1.75 3.35001 2.58338 2.50833 4.24171 2.50833H9.43336C11.0917 2.50833 11.9167 3.35001 11.9167 5.02501V18.3333"/>
</mask>
<path d="M1.75 18.3333V5.02501C1.75 3.35001 2.58338 2.50833 4.24171 2.50833H9.43336C11.0917 2.50833 11.9167 3.35001 11.9167 5.02501V18.3333" fill="#009754"/>
<path d="M2.75 18.3333V5.02501H0.75V18.3333H2.75ZM2.75 5.02501C2.75 4.34043 2.91983 4.00854 3.0846 3.84212C3.24757 3.67753 3.5705 3.50833 4.24171 3.50833V1.50833C3.25459 1.50833 2.33166 1.75998 1.66336 2.43497C0.996856 3.10815 0.75 4.0346 0.75 5.02501H2.75ZM4.24171 3.50833H9.43336V1.50833H4.24171V3.50833ZM9.43336 3.50833C10.1046 3.50833 10.4241 3.67747 10.5845 3.84032C10.7477 4.00595 10.9167 4.3379 10.9167 5.02501H12.9167C12.9167 4.03712 12.6732 3.11074 12.0093 2.43677C11.3426 1.76003 10.4205 1.50833 9.43336 1.50833V3.50833ZM10.9167 5.02501V18.3333H12.9167V5.02501H10.9167Z" fill="#009754" mask="url(#path-1-inside-1_515_23091)"/>
</g>
<path d="M8.95899 7.5H4.83398C4.49232 7.5 4.20898 7.21667 4.20898 6.875C4.20898 6.53333 4.49232 6.25 4.83398 6.25H8.95899C9.30066 6.25 9.58399 6.53333 9.58399 6.875C9.58399 7.21667 9.30066 7.5 8.95899 7.5Z" fill="#009754"/>
<path d="M8.95899 10.625H4.83398C4.49232 10.625 4.20898 10.3417 4.20898 10C4.20898 9.65833 4.49232 9.375 4.83398 9.375H8.95899C9.30066 9.375 9.58399 9.65833 9.58399 10C9.58399 10.3417 9.30066 10.625 8.95899 10.625Z" fill="#009754"/>
<path d="M6.875 18.9583C6.53333 18.9583 6.25 18.675 6.25 18.3333V15.2083C6.25 14.8667 6.53333 14.5833 6.875 14.5833C7.21667 14.5833 7.5 14.8667 7.5 15.2083V18.3333C7.5 18.675 7.21667 18.9583 6.875 18.9583Z" fill="#009754"/>
<path d="M19.1673 17.7083H17.2756V15.2083C18.0673 14.95 18.6423 14.2083 18.6423 13.3333V11.6667C18.6423 10.575 17.7506 9.68332 16.659 9.68332C15.5673 9.68332 14.6756 10.575 14.6756 11.6667V13.3333C14.6756 14.2 15.2423 14.9333 16.0173 15.2V17.7083H0.833984C0.492318 17.7083 0.208984 17.9917 0.208984 18.3333C0.208984 18.675 0.492318 18.9583 0.833984 18.9583H16.609C16.6256 18.9583 16.634 18.9667 16.6506 18.9667C16.6673 18.9667 16.6757 18.9583 16.6923 18.9583H19.1673C19.509 18.9583 19.7923 18.675 19.7923 18.3333C19.7923 17.9917 19.509 17.7083 19.1673 17.7083Z" fill="#009754"/>
</svg>
