<svg width="50" height="24" viewBox="0 0 50 24" fill="none" xmlns="http://www.w3.org/2000/svg">
<path d="M39.9215 4.72778e-07H10.1123C8.80709 -0.000402136 7.51454 0.256339 6.30852 0.75556C5.10251 1.25478 4.00665 1.9867 3.08356 2.90951C2.16046 3.83233 1.4282 4.92795 0.928608 6.13382C0.429015 7.33968 0.171875 8.63214 0.171875 9.9374H0.171875C0.171875 12.573 1.21885 15.1006 3.08247 16.9642C4.9461 18.8278 7.47371 19.8748 10.1093 19.8748H39.7253C44.9615 19.8748 49.4528 15.9015 49.8321 10.6792C49.9339 9.31547 49.7533 7.94541 49.3014 6.65472C48.8495 5.36403 48.1361 4.18048 47.2059 3.1781C46.2757 2.17573 45.1486 1.37611 43.8952 0.829257C42.6418 0.282409 41.289 0.000103414 39.9215 4.72778e-07Z" fill="#98A2B3"/>
<path d="M16.3805 12.5214H12.3559L11.3259 15.9H9.17188L13.0563 3.97485H15.7667L19.6511 15.9H17.4288L16.3805 12.5214ZM15.8747 10.8593L14.3574 5.98103L12.8578 10.8593H15.8747Z" fill="white"/>
<path d="M21.5519 14.9966L27.0953 5.69137H21.2231L21.476 3.97485H29.8234V4.87832L24.2761 14.1835H30.1843L29.9314 15.9H21.5519V14.9966Z" fill="white"/>
<path d="M32.5327 3.97485H40.3015L40.5544 5.69137H34.5565V8.8539H40.3038L40.5559 10.552H34.5565V14.1835H40.5559L40.303 15.9H32.5327V3.97485Z" fill="white"/>
</svg>
