<svg width="20" height="20" viewBox="0 0 20 20" fill="none" xmlns="http://www.w3.org/2000/svg">
<path opacity="0.4" d="M4.04102 5.62499C4.04102 3.7178 5.59216 2.16666 7.49935 2.16666C9.40622 2.16666 10.9572 3.71727 10.9577 5.62402C10.9499 7.49525 9.4911 9.0052 7.63194 9.07499H7.63192H7.6319H7.63187H7.63185H7.63182H7.6318H7.63177H7.63175H7.63172H7.6317H7.63167H7.63165H7.63162H7.6316H7.63157H7.63155H7.63152H7.6315H7.63147H7.63145H7.63142H7.63139H7.63137H7.63134H7.63132H7.63129H7.63127H7.63124H7.63122H7.63119H7.63116H7.63114H7.63111H7.63109H7.63106H7.63103H7.63101H7.63098H7.63096H7.63093H7.6309H7.63088H7.63085H7.63082H7.6308H7.63077H7.63074H7.63072H7.63069H7.63066H7.63064H7.63061H7.63058H7.63056H7.63053H7.6305H7.63048H7.63045H7.63042H7.63039H7.63037H7.63034H7.63031H7.63028H7.63026H7.63023H7.6302H7.63017H7.63014H7.63012H7.63009H7.63006H7.63003H7.63H7.62997H7.62995H7.62992H7.62989H7.62986H7.62983H7.6298H7.62977H7.62974H7.62971H7.62968H7.62966H7.62963H7.6296H7.62957H7.62954H7.62951H7.62948H7.62945H7.62942H7.62939H7.62936H7.62933H7.6293H7.62927H7.62923H7.6292H7.62917H7.62914H7.62911H7.62908H7.62905H7.62902H7.62899H7.62895H7.62892H7.62889H7.62886H7.62883H7.6288H7.62876H7.62873H7.6287H7.62867H7.62863H7.6286H7.62857H7.62853H7.6285H7.62847H7.62843H7.6284H7.62837H7.62833H7.6283H7.62827H7.62823H7.6282H7.62816H7.62813H7.6281H7.62806H7.62803H7.62799H7.62796H7.62792H7.62789H7.62785H7.62781H7.62778H7.62774H7.62771H7.62767H7.62764H7.6276H7.62756H7.62753H7.62749H7.62745H7.62742H7.62738H7.62734H7.6273H7.62727H7.62723H7.62719H7.62715H7.62712H7.62708H7.62704H7.627H7.62696H7.62692H7.62688H7.62684H7.62681H7.62677H7.62673H7.62669H7.62665H7.62661H7.62657H7.62653H7.62649H7.62645H7.6264H7.62636H7.62632H7.62628H7.62624H7.6262H7.62616H7.62611H7.62607H7.62603H7.62599H7.62595H7.6259H7.62586H7.62582H7.62577H7.62573H7.62569H7.62564H7.6256H7.62556H7.62551H7.62547H7.62542H7.62538H7.62533H7.62529H7.62524H7.6252H7.62515H7.62511H7.62506H7.62501H7.62497H7.62492H7.62487H7.62483H7.62478H7.62473H7.62469H7.62464H7.62459H7.62454H7.62449H7.62445H7.6244H7.62435H7.62425H7.62415H7.62406H7.62396H7.62386H7.62377H7.62367H7.62357H7.62348H7.62338H7.62329H7.62319H7.62309H7.623H7.6229H7.62281H7.62271H7.62262H7.62253H7.62243H7.62234H7.62224H7.62215H7.62206H7.62196H7.62187H7.62178H7.62169H7.62159H7.6215H7.62141H7.62132H7.62122H7.62113H7.62104H7.62095H7.62086H7.62077H7.62068H7.62059H7.6205H7.62041H7.62032H7.62023H7.62014H7.62005H7.61996H7.61987H7.61978H7.61969H7.6196H7.61951H7.61942H7.61933H7.61925H7.61916H7.61907H7.61898H7.61889H7.61881H7.61872H7.61863H7.61854H7.61846H7.61837H7.61828H7.6182H7.61811H7.61802H7.61794H7.61785H7.61776H7.61768H7.61759H7.61751H7.61742H7.61734H7.61725H7.61717H7.61708H7.617H7.61691H7.61683H7.61674H7.61666H7.61658H7.61649H7.61641H7.61632H7.61624H7.61616H7.61607H7.61599H7.61591H7.61583H7.61574H7.61566H7.61558H7.61549C7.53677 9.06631 7.45637 9.06734 7.38273 9.07397C5.48186 8.99157 4.04102 7.48269 4.04102 5.62499Z" fill="#009754" stroke="#009754"/>
<path d="M3.54486 16.7432L3.5435 16.7423C2.59454 16.1097 2.13281 15.3001 2.13281 14.4833C2.13281 13.6662 2.59492 12.8485 3.55153 12.2079C4.62392 11.4984 6.05546 11.1292 7.5099 11.1292C8.96496 11.1292 10.392 11.4987 11.4555 12.2077C12.4008 12.8379 12.8587 13.6472 12.8661 14.4687C12.8654 15.2935 12.4031 16.1028 11.4537 16.7435C10.3862 17.4601 8.95557 17.8333 7.49948 17.8333C6.0432 17.8333 4.61242 17.46 3.54486 16.7432Z" fill="#009754" stroke="#009754"/>
<path opacity="0.4" d="M16.6578 6.11668C16.7911 7.73335 15.6411 9.15001 14.0495 9.34168C14.0411 9.34168 14.0411 9.34168 14.0328 9.34168H14.0078C13.9578 9.34168 13.9078 9.34168 13.8661 9.35834C13.0578 9.40001 12.3161 9.14168 11.7578 8.66668C12.6161 7.90001 13.1078 6.75001 13.0078 5.50001C12.9495 4.82501 12.7161 4.20835 12.3661 3.68335C12.6828 3.52501 13.0495 3.42501 13.4245 3.39168C15.0578 3.25001 16.5161 4.46668 16.6578 6.11668Z" fill="#009754"/>
<path d="M18.3249 13.825C18.2582 14.6333 17.7415 15.3333 16.8749 15.8083C16.0415 16.2667 14.9915 16.4833 13.9499 16.4583C14.5499 15.9167 14.8999 15.2417 14.9665 14.525C15.0499 13.4917 14.5582 12.5 13.5749 11.7083C13.0165 11.2667 12.3665 10.9167 11.6582 10.6583C13.4999 10.125 15.8165 10.4833 17.2415 11.6333C18.0082 12.25 18.3999 13.025 18.3249 13.825Z" fill="#009754"/>
</svg>
