<svg width="150" height="32" viewBox="0 0 150 32" fill="none" xmlns="http://www.w3.org/2000/svg">
<path d="M30.5629 20.7434V12.9479C30.5629 12.9479 30.5629 12.7534 30.3434 12.7534C30.1489 12.7534 30.1489 12.9479 30.1489 12.9479V20.7434C30.1489 20.7434 30.1489 20.9179 30.3634 20.9179C30.5829 20.9179 30.5629 20.7434 30.5629 20.7434Z" fill="#98A2B3"/>
<path d="M0.141602 32H149.475V0H0.141602V32ZM13.4217 20.9177C13.6162 20.9177 13.6162 20.7631 13.6162 20.7631V12.2943H14.16V20.7431C14.16 20.7431 14.2049 21.3965 13.4616 21.3965C12.7182 21.3965 12.7233 20.7431 12.7233 20.7431V12.2943H13.267V20.7232C13.267 20.7232 13.2221 20.9177 13.4217 20.9177ZM32.2842 22.7431H11.506V21.8703H32.2842V22.7431ZM16.1455 21.3965V12.2943H16.5796L17.1233 17.1571V12.2943H17.5823V21.3965H17.1233L16.5796 15.9252V21.3965H16.1455ZM20.805 16.3042V16.803H20.2164V20.9177H20.9996V21.3965H19.6078V12.2943H20.805V12.7531H20.2164V16.3042H20.805ZM23.494 20.9077C23.6337 20.9177 23.6337 20.7431 23.6337 20.7431V18.6434C23.6337 17.7606 22.7856 15.8354 22.7856 14.6933V12.9526C22.7856 12.9526 22.7856 12.3192 23.504 12.2993C24.2223 12.2793 24.2024 12.9526 24.2024 12.9526V14.9975H23.6386V12.9526C23.6386 12.9526 23.6386 12.7581 23.484 12.7581C23.3294 12.7581 23.3543 12.9526 23.3543 12.9526V14.9975C23.3543 15.6708 24.2024 17.7057 24.2024 18.7781C24.2024 19.2219 24.2024 20.7481 24.2024 20.7481C24.2024 20.7481 24.2024 21.4015 23.484 21.4015C22.7656 21.4015 22.7856 20.7481 22.7856 20.7481V18.4638H23.3543V20.7481C23.3543 20.7431 23.3543 20.8978 23.494 20.9077ZM26.9013 12.7531C26.7068 12.7531 26.7068 12.9477 26.7068 12.9477V20.7431C26.7068 20.7431 26.7417 20.9177 26.9013 20.9177C27.0759 20.9177 27.0759 20.7431 27.0759 20.7431V18.4589H27.6197V20.7431C27.6197 20.7431 27.6197 21.3965 26.9013 21.3965C26.1829 21.3965 26.2029 20.7431 26.2029 20.7431V12.9477C26.2029 12.9477 26.2029 12.2943 26.9013 12.2943C27.5997 12.2943 27.6197 12.9477 27.6197 12.9477V14.9925H27.0759V12.9477C27.0759 12.9477 27.0759 12.7531 26.9013 12.7531ZM29.6052 20.7431V12.9477C29.6052 12.9477 29.6052 12.2943 30.3685 12.2943C31.1318 12.2943 31.0869 12.9477 31.0869 12.9477V20.7431C31.0869 20.7431 31.0869 21.3965 30.3236 21.3965C29.6052 21.3965 29.6052 20.7431 29.6052 20.7431ZM11.506 10.8927H32.2842V11.7656H11.506V10.8927ZM13.1822 10.3342L21.8926 7.67583L30.4732 10.3342H27.949L21.8926 8.48377L15.7065 10.3342H13.1822ZM11.506 9.39651L21.8926 6.19451L32.2842 9.39651V10.3342L21.8277 7.17709L11.506 10.3342V9.39651ZM10.3286 23.3516H33.4166V24.2194H10.3286V23.3516ZM34.5491 25.7057H9.2411V24.8329H34.5491V25.7057ZM148.572 31.0973H43.6436V0.902743H148.572V31.0973Z" fill="#98A2B3"/>
<path d="M124.771 19.3914C124.108 20.0498 123.23 20.4139 122.292 20.4139C120.356 20.4139 118.779 18.8378 118.779 16.9026C118.779 14.9675 120.351 13.3914 122.292 13.3914C123.219 13.3914 124.093 13.7505 124.756 14.4039L124.846 14.4937L126.442 11.0971L126.382 11.0523C125.175 10.1994 123.753 9.74554 122.272 9.74554C118.34 9.74554 115.148 12.9426 115.148 16.8677C115.148 20.7979 118.346 23.9899 122.272 23.9899C123.748 23.9899 125.165 23.541 126.372 22.6882L126.432 22.6433L124.861 19.3017L124.771 19.3914Z" fill="#98A2B3"/>
<path d="M134.887 20.424C132.957 20.424 131.385 18.8529 131.385 16.9228C131.385 14.9926 132.957 13.4215 134.887 13.4215C136.818 13.4215 138.389 14.9926 138.389 16.9228C138.389 18.8529 136.818 20.424 134.887 20.424ZM134.867 9.77563C130.946 9.77563 127.754 12.9677 127.754 16.8879C127.754 20.8081 130.946 24.0001 134.867 24.0001C138.788 24.0001 141.981 20.8081 141.981 16.8879C141.981 12.9677 138.793 9.77563 134.867 9.77563Z" fill="#98A2B3"/>
<path d="M57.0492 10.1998V17.5514C57.0492 18.1499 57.109 19.0776 57.7975 19.706C58.097 19.9753 58.6354 20.3345 59.5934 20.3345C60.4016 20.3345 61.0303 20.0651 61.4196 19.706C62.0477 19.1075 62.1374 18.2098 62.1374 17.5514V10.1998H66.4431V17.9703C66.4431 19.4965 66.2933 20.9279 64.9461 22.2447C63.42 23.7409 61.1801 23.9803 59.5934 23.9803C57.9473 23.9803 55.7371 23.7409 54.2105 22.2447C52.9833 21.0477 52.7438 19.706 52.7438 18.2397V10.1998H57.0492Z" fill="#98A2B3"/>
<path d="M69.785 10.1995H74.0901V11.7855C75.407 10.1097 76.9588 9.84039 78.2156 9.84039C79.3834 9.84039 80.91 10.0499 82.0423 11.187C83.2992 12.4439 83.3889 14.0249 83.3889 15.1022V23.5312H79.0839V16.6883C79.0839 15.8205 79.0541 14.7182 78.3654 14.0299C78.0362 13.7007 77.4972 13.4314 76.7244 13.4314C75.8265 13.4314 75.2578 13.7905 74.928 14.1497C74.2101 14.8678 74.0901 15.8254 74.0901 16.6883V23.5362H69.785V10.1995Z" fill="#98A2B3"/>
<path d="M96.4247 15.0423C96.3944 14.9226 96.1852 14.0847 95.5565 13.4862C95.0775 13.0373 94.3893 12.7381 93.5211 12.7381C92.4134 12.7381 91.7549 13.1869 91.336 13.6059C91.0068 13.965 90.7073 14.4438 90.5878 15.0423H96.4247ZM100.401 17.6109H90.4432C90.4432 18.3291 90.7124 19.2867 91.2514 19.8852C91.9098 20.6034 92.8078 20.7231 93.4611 20.7231C94.0898 20.7231 94.7483 20.6034 95.1975 20.3341C95.257 20.3041 95.7662 19.975 96.1252 19.2269L100.191 19.6458C99.5923 21.5261 98.3949 22.5136 97.6221 22.9924C96.3349 23.7705 94.898 23.9799 93.4062 23.9799C91.4057 23.9799 89.6396 23.6209 88.0832 22.0647C86.916 20.8977 86.0781 19.137 86.0781 16.9226C86.0781 15.0123 86.7663 13.0373 88.1135 11.6607C89.7299 10.0448 91.7304 9.74554 93.2267 9.74554C94.7237 9.74554 96.8733 10.0149 98.52 11.7505C100.106 13.4263 100.406 15.5161 100.406 17.162V17.6109H100.401Z" fill="#98A2B3"/>
<path d="M111.256 13.6065C110.598 13.2174 109.73 12.8584 108.896 12.8584C108.448 12.8584 107.938 12.9781 107.669 13.2474C107.519 13.397 107.4 13.6364 107.4 13.8459C107.4 14.1452 107.609 14.3247 107.819 14.4444C108.118 14.624 108.567 14.7137 109.106 14.8933L110.244 15.2524C110.992 15.4918 111.77 15.791 112.453 16.4194C113.232 17.1377 113.501 17.9457 113.501 18.9631C113.501 20.7287 112.723 21.8609 112.124 22.4594C110.807 23.7761 109.191 23.9806 107.789 23.9806C105.993 23.9806 104.052 23.5916 102.316 22.0704L104.142 19.1726C104.561 19.5317 105.16 19.9506 105.609 20.1601C106.208 20.4594 106.836 20.579 107.405 20.579C107.674 20.579 108.362 20.579 108.752 20.2798C109.021 20.0704 109.201 19.7412 109.201 19.412C109.201 19.1726 109.111 18.8733 108.722 18.6339C108.422 18.4544 108.033 18.3347 107.405 18.1551L106.327 17.826C105.549 17.5865 104.741 17.1676 104.172 16.599C103.544 15.9406 103.214 15.1925 103.214 14.175C103.214 12.8883 103.723 11.816 104.502 11.0978C105.698 9.99053 107.31 9.75116 108.537 9.75116C110.508 9.75116 111.884 10.2598 112.962 10.8883L111.256 13.6065Z" fill="#98A2B3"/>
</svg>
